<svg viewBox="0 0 513 212" fill="none" xmlns="http://www.w3.org/2000/svg">
<path d="M49.6747 160.057C42.7975 160.057 36.7138 159.264 31.4236 157.677C26.2393 156.09 21.7955 153.18 18.0924 148.948C14.4951 144.716 11.7442 138.685 9.83972 130.856C8.04106 122.92 7.14173 112.657 7.14173 100.067C7.14173 87.8995 8.09397 77.954 9.99843 70.2303C12.0087 62.4009 14.8654 56.3701 18.5685 52.1379C22.2716 47.8 26.7683 44.7846 32.0585 43.0917C37.3486 41.3989 43.3265 40.5524 49.9921 40.5524C55.2823 40.5524 60.2022 40.8698 64.7517 41.5047C69.4071 42.0337 73.5863 42.7214 77.2894 43.5678C80.9926 44.3085 84.1138 45.1549 86.653 46.1071V64.3582C84.7486 63.935 82.1564 63.5118 78.8765 63.0886C75.7024 62.6654 72.0522 62.348 67.9258 62.1363C63.7995 61.8189 59.4616 61.6602 54.912 61.6602C50.4683 61.6602 46.6593 62.1892 43.4852 63.2473C40.4169 64.1995 37.9305 66.0511 36.0261 68.802C34.2274 71.447 32.852 75.3089 31.8997 80.3874C31.0533 85.466 30.6301 92.0787 30.6301 100.226C30.6301 108.055 31.0004 114.509 31.741 119.588C32.5875 124.666 33.91 128.634 35.7087 131.491C37.5073 134.241 39.9408 136.199 43.0091 137.363C46.1832 138.421 50.1508 138.95 54.912 138.95C62.9531 138.95 69.46 138.791 74.4327 138.474C79.5113 138.156 83.5847 137.786 86.653 137.363V155.455C83.7964 156.407 80.5164 157.254 76.8133 157.994C73.1102 158.629 69.0368 159.105 64.593 159.423C60.1493 159.846 55.1765 160.057 49.6747 160.057Z"/>
<path d="M166.444 150.183V52.5044H185.98V93.1597H222.807V52.5044H242.475V150.183H222.807V110.715H185.98V150.183H166.444Z"/>
<path d="M274.527 150.052V52.6096H312.846C322.502 52.6096 329.525 54.8481 333.914 59.3252C338.392 63.7145 340.63 69.9912 340.63 78.1553C340.63 82.0179 340.059 85.4416 338.918 88.4263C337.865 91.3233 336.329 93.7374 334.309 95.6687C332.29 97.5122 329.876 98.7851 327.067 99.4874C329.174 100.014 331.193 100.848 333.124 101.989C335.143 103.131 336.943 104.667 338.523 106.598C340.191 108.529 341.464 110.9 342.342 113.709C343.308 116.43 343.79 119.59 343.79 123.19C343.79 129.774 342.649 135.041 340.367 138.991C338.172 142.942 334.88 145.795 330.491 147.55C326.189 149.218 320.878 150.052 314.558 150.052H274.527ZM294.016 132.539H314.031C316.313 132.539 318.289 132.1 319.956 131.222C321.624 130.344 322.897 128.984 323.775 127.14C324.741 125.297 325.224 122.839 325.224 119.766C325.224 117.22 324.741 115.069 323.775 113.314C322.809 111.558 321.493 110.197 319.825 109.232C318.157 108.266 316.226 107.783 314.031 107.783H294.016V132.539ZM294.016 92.7717H312.977C315.787 92.7717 317.981 91.7622 319.561 89.7431C321.229 87.6363 322.063 84.9149 322.063 81.579C322.151 77.2775 321.273 74.2928 319.43 72.6248C317.586 70.9569 315.348 70.1229 312.714 70.1229H294.016V92.7717Z"/>
<path d="M423.768 159.105V41.6634H473.284C477.093 41.6634 480.955 42.1395 484.87 43.0917C488.89 43.9381 492.54 45.7368 495.82 48.4877C499.206 51.1328 501.904 55.1533 503.914 60.5493C506.03 65.9453 507.088 73.087 507.088 81.9745C507.088 90.862 506.03 98.0566 503.914 103.558C501.904 109.06 499.259 113.239 495.979 116.096C492.699 118.953 489.155 120.857 485.346 121.81C481.537 122.762 477.834 123.238 474.236 123.238C472.332 123.238 470.11 123.185 467.571 123.079C465.032 122.868 462.439 122.603 459.794 122.286C457.255 121.968 454.874 121.704 452.653 121.492C450.431 121.175 448.632 120.91 447.257 120.699V159.105H423.768ZM447.257 102.13H470.586C473.337 102.13 475.665 101.495 477.569 100.226C479.58 98.8501 481.061 96.7341 482.013 93.8774C482.965 90.9149 483.441 87.0002 483.441 82.1332C483.441 77.372 482.912 73.616 481.854 70.8651C480.902 68.0084 479.474 65.9453 477.569 64.6756C475.771 63.406 473.602 62.7712 471.062 62.7712H447.257V102.13Z"/>
</svg>
