<svg viewBox="0 0 757 163" fill="none" xmlns="http://www.w3.org/2000/svg">
<path d="M181.919 135.146C110.456 143.176 0 163 0 163V0H757C757 0 752.656 22.6962 682.603 67.5728C612.551 112.449 608.207 101.101 486.565 121.218C364.924 141.335 300.204 121.854 181.919 135.146Z" fill="#FFF8FC"/>
<path d="M175.945 124.314C106.686 134.472 0 157.842 0 157.842V1.54785H736.907C736.907 1.54785 677.644 40.3229 635.902 58.2884C571.683 85.9279 570.212 86.1411 462.416 101.776L459.956 102.133C349.719 118.124 285.929 108.182 175.945 124.314Z" fill="#FFDDF0"/>
<path d="M179.204 112.965C60.8207 130.503 0 153.715 0 153.715V0H740.709C740.709 0 591.915 63.962 501.77 80.4684C411.626 96.9747 297.587 95.4272 179.204 112.965Z" fill="#F20089"/>
</svg>
